<svg xmlns="http://www.w3.org/2000/svg" version="1.1" xmlns:xlink="http://www.w3.org/1999/xlink" xmlns:svgjs="http://svgjs.com/svgjs" width="1440" height="560" preserveAspectRatio="none" viewBox="0 0 1440 560">
    <g mask="url(&quot;#SvgjsMask1352&quot;)" fill="none">
        <use xlink:href="#SvgjsG1368" transform="translate(0, 0)" fill="#ffffff12"></use>
        <use xlink:href="#SvgjsG1368" transform="translate(0, 480)" fill="#ffffff12"></use>
        <use xlink:href="#SvgjsG1368" transform="translate(480, 0)" fill="#ffffff12"></use>
        <use xlink:href="#SvgjsG1368" transform="translate(480, 480)" fill="#ffffff12"></use>
        <use xlink:href="#SvgjsG1368" transform="translate(960, 0)" fill="#ffffff12"></use>
        <use xlink:href="#SvgjsG1368" transform="translate(960, 480)" fill="#ffffff12"></use>
    </g>
    <defs>
        <mask id="SvgjsMask1352">
            <rect width="1440" height="560" fill="#ffffff"></rect>
        </mask>
        <g id="SvgjsG1355">
            <path d="M3.474 10.969C3.474 7.665 8.077 0.361 8.077 0.361s4.602 7.305 4.602 10.608c0 2.247-1.506 4.771-4.602 4.771-3.095 0-4.603-2.524-4.603-4.771z" fill-rule="evenodd"></path>
        </g>
        <g id="SvgjsG1362">
            <path d="M7.713 15.485C3.459 15.485 0 12.025 0 7.768 0 3.513 3.459 0.051 7.713 0.051S15.432 3.513 15.432 7.768c0 4.257-3.465 7.716-7.719 7.717z m0-1.91c3.201 0 5.81-2.604 5.81-5.809 0-3.199-2.61-5.807-5.81-5.807-3.202 0-5.804 2.609-5.804 5.807-0.001 3.206 2.602 5.809 5.804 5.809z"></path>
            <path d="M7.753 8.787a0.574 0.574 0 0 1-0.554-0.042 0.578 0.578 0 0 1-0.259-0.399L6.931 3.862a0.58 0.58 0 0 1 1.162 0v3.478l2.975-1.4a0.578 0.578 0 0 1 0.773 0.275c0.138 0.292 0.011 0.637-0.276 0.774l-3.81 1.798z"></path>
        </g>
        <g id="SvgjsG1364">
            <path d="M11.986 8.245a46.749 46.749 0 0 1-0.521-0.411c-0.146-0.116-0.293-0.233-0.44-0.348-0.88-0.688-1.797-1.316-2.816-1.407A2.815 2.815 0 0 0 7.954 6.067c-0.086 0-0.171 0.011-0.255 0.018-1.022 0.093-1.942 0.717-2.826 1.408l0.093 0.073c0.108 0.085 0.213 0.168 0.32 0.252C6.165 7.137 7.021 6.576 7.954 6.576c0.93 0 1.784 0.558 2.66 1.236a35.098 35.098 0 0 1 0.535 0.421c0.142 0.113 0.283 0.226 0.426 0.338C12.532 9.32 13.531 10 14.658 10c0.437 0 0.854-0.104 1.257-0.273v-0.557c-0.409 0.197-0.825 0.32-1.257 0.32-0.934 0-1.792-0.563-2.672-1.245z"></path>
            <path d="M11.574 7.496c0.029 0.023 0.059 0.046 0.088 0.07 0.109 0.087 0.216 0.17 0.325 0.256 0.318-0.246 0.635-0.476 0.952-0.67v1.37c0.17 0.111 0.34 0.214 0.51 0.301V6.878c0.315-0.147 0.634-0.248 0.96-0.283v2.537c0.078 0.01 0.157 0.018 0.237 0.018 0.091 0 0.183-0.009 0.273-0.021V6.592c0.34 0.037 0.67 0.144 0.996 0.3V6.336C15.514 6.17 15.099 6.067 14.664 6.067c-1.128 0-2.13 0.68-3.09 1.429z m-7.248 1.08c-0.034-0.027-0.068-0.053-0.102-0.08-0.104-0.083-0.207-0.162-0.31-0.245-0.877 0.678-1.733 1.238-2.665 1.238C0.82 9.49 0.407 9.36 0 9.152v0.562C0.401 9.891 0.815 10 1.249 10c1.124 0 2.122-0.677 3.077-1.423z"></path>
            <path d="M0.989 9.133c0.084 0.011 0.17 0.019 0.254 0.02 0.086 0 0.171-0.008 0.256-0.02V6.592c0.329 0.035 0.65 0.136 0.967 0.285-0.002 0.012-0.007 0.023-0.007 0.036v1.903a5.818 5.818 0 0 0 0.51-0.303V7.152c0.487 0.3 0.971 0.684 1.467 1.08C5.525 9.101 6.652 10 7.948 10c1.123 0 2.121-0.675 3.078-1.42l-0.106-0.084c-0.103-0.082-0.205-0.161-0.306-0.242-0.313 0.242-0.622 0.466-0.934 0.658V7.564A5.816 5.816 0 0 0 9.17 7.261v1.893c0 0.01 0.004 0.019 0.005 0.029-0.316 0.149-0.637 0.252-0.965 0.288V6.937a1.97 1.97 0 0 0-0.267-0.02c-0.082 0-0.163 0.008-0.243 0.017v2.541c-0.33-0.035-0.652-0.136-0.969-0.283 0.002-0.013 0.006-0.024 0.006-0.039V7.248a5.629 5.629 0 0 0-0.51 0.302v1.368c-0.49-0.299-0.976-0.686-1.474-1.083C3.666 6.966 2.539 6.067 1.243 6.067c-0.432 0-0.844 0.096-1.243 0.251v0.55c0.324-0.144 0.652-0.244 0.989-0.278V9.133z"></path>
        </g>
        <g id="SvgjsG1360">
            <path d="M2.524 8.637H0.014V7.308h2.51v1.329zM3.656 4.576L1.884 2.804l0.935-0.935 1.772 1.772-0.935 0.935z m0 6.817l0.935 0.935-1.772 1.773-0.934-0.936 1.771-1.772z m4.997-8.884h-1.33V-0.002h1.33v2.511z m-1.33 10.952h1.33v2.51h-1.33v-2.509zM12.344 4.576l-0.96-0.935 1.796-1.772 0.935 0.935-1.772 1.772z m0 6.792l1.771 1.797-0.935 0.936-1.771-1.774 0.936-0.96z m3.643-4.06v1.329h-2.51V7.308h2.509z"></path>
            <path d="M3.702 7.984a4.184 4.184 0 1 0 8.368 0 4.184 4.184 0 1 0-8.368 0"></path>
        </g>
        <g id="SvgjsG1361">
            <path d="M3.755 2.315h2.494v11.128h-2.494zM13.507 0.537H16v11.261h-2.493z"></path>
            <path d="M4.451 5.556l-0.696-3.24L16 0v3.167z"></path>
            <path d="M0 13.443a3.124 2.606 0 1 0 6.249 0 3.124 2.606 0 1 0-6.249 0"></path>
            <path d="M9.751 11.798a3.124 2.606 0 1 0 6.249 0 3.124 2.606 0 1 0-6.249 0"></path>
        </g>
        <g id="SvgjsG1366">
            <path d="M14.885 8.725h-1.479v5.687c0.01 1.007 1.48 1.007 1.479 0V8.725z m-1.69 0h-1.479v5.687c0.006 1 1.476 1 1.479 0V8.725z m-3.593 0h-1.479v5.687c0.009 1.007 1.48 1.007 1.479 0V8.725z m-1.691 0h-1.479v5.687c0.006 1 1.477 1 1.479 0V8.725z m-3.592 0h-1.479v5.687c0.009 1.007 1.48 1.007 1.479 0V8.725z m-1.69 0h-1.479v5.687c0.005 1 1.477 1 1.479 0V8.725z"></path>
            <path d="M15.828 8.303a0.57 0.57 0 0 1-0.578 0.577s-3.866 0.005-3.88 0a0.576 0.576 0 0 1-0.576-0.577V4.096a0.793 0.793 0 0 1 0.806-0.807c-0.005-0.005 3.419 0 3.418 0a0.792 0.792 0 0 1 0.808 0.807v4.206h0.001zM13.329 2.944c0.606 0 1.099-0.494 1.095-1.096A1.1 1.1 0 0 0 13.329 0.734a1.119 1.119 0 0 0-1.114 1.114 1.113 1.113 0 0 0 1.114 1.096z m-2.785 5.359a0.567 0.567 0 0 1-0.576 0.577s-3.866 0.005-3.881 0a0.576 0.576 0 0 1-0.576-0.577V4.096a0.794 0.794 0 0 1 0.807-0.807c-0.005-0.005 3.419 0 3.419 0a0.791 0.791 0 0 1 0.807 0.807v4.206zM8.047 2.944c0.605 0 1.099-0.494 1.094-1.096A1.1 1.1 0 0 0 8.047 0.734a1.12 1.12 0 0 0-1.115 1.114 1.114 1.114 0 0 0 1.114 1.096z m-2.787 5.359a0.568 0.568 0 0 1-0.576 0.577s-3.866 0.005-3.88 0a0.576 0.576 0 0 1-0.576-0.577V4.096a0.793 0.793 0 0 1 0.807-0.808c-0.005-0.005 3.42 0 3.419 0a0.791 0.791 0 0 1 0.807 0.807v4.207zM2.763 2.944c0.606 0 1.1-0.494 1.096-1.096A1.1 1.1 0 0 0 2.763 0.734a1.118 1.118 0 0 0-1.113 1.114A1.112 1.112 0 0 0 2.763 2.944z"></path>
        </g>
        <g id="SvgjsG1359">
            <path d="M12.865 12.36c-3.667 0-6.639-2.973-6.639-6.639 0-2.102 0.978-3.975 2.503-5.192-3.976 0.149-7.153 3.416-7.153 7.428 0 4.106 3.328 7.434 7.435 7.434 2.66 0 4.993-1.399 6.308-3.502a6.601 6.601 0 0 1-2.455 0.471z"></path>
        </g>
        <g id="SvgjsG1353">
            <path d="M9.412 5.113c1.273 0 2.378 0.701 2.988 1.734l3.596 0.004v-1.949c0-0.725-0.584-1.314-1.299-1.314H1.295C0.578 3.588 0 4.176 0 4.902l0.004 1.932 6.418 0.005c0.614-1.029 1.715-1.725 2.99-1.725M3.361 2.97h-1.192l-0.138 0.434h1.429l-0.099-0.434zM14.11 2.738h-1.587L12.242 3.408H14.368l-0.258-0.67zM8.662 3.177h-1.366V2.508h1.366v0.669zM9.914 2.24h-3.857l-0.795 1.176h5.38L9.914 2.24z m2.672 4.955c0.199 0.443 0.316 0.93 0.316 1.449 0 1.949-1.563 3.531-3.49 3.531-1.93 0-3.493-1.582-3.493-3.531 0-0.519 0.116-1.006 0.316-1.451H0V12.514c0 0.721 0.577 1.309 1.295 1.309h13.401c0.716 0 1.299-0.588 1.3-1.309L16 7.195H12.586z"></path>
            <path d="M11.315 7.484a1.717 1.717 0 0 0-0.199-0.278c-0.408-0.496-1.018-0.822-1.704-0.823-0.69 0-1.299 0.324-1.707 0.818-0.075 0.09-0.144 0.182-0.203 0.283-0.205 0.34-0.33 0.734-0.329 1.16 0 1.246 1.002 2.258 2.237 2.258 1.23 0 2.232-1.013 2.232-2.259 0-0.427-0.122-0.819-0.329-1.16"></path>
        </g>
        <g id="SvgjsG1363">
            <path d="M8.43 3.58a1.188 1.188 0 0 0 0-2.372 1.186 1.186 0 0 0 0 2.372"></path>
            <path d="M9.314 3.844h-1.73L4.634 0.894A0.6 0.6 0 0 0 3.78 0.874a0.6 0.6 0 0 0-0.024 0.856l3.08 3.086v10.228a0.664 0.664 0 0 0 1.334 0V9.496h0.54v5.548c0 0.37 0.304 0.668 0.67 0.668 0.368 0 0.664-0.3 0.664-0.668L10.04 4.816 13.12 1.73a0.6 0.6 0 0 0-0.02-0.854 0.6 0.6 0 0 0-0.856 0.02L9.314 3.84z"></path>
        </g>
        <g id="SvgjsG1354">
            <path d="M8.688 6.116c0.878 0.204 1.538 0.96 1.538 1.857v6.893c0 0.213-0.183 0.384-0.402 0.384H5.872a0.395 0.395 0 0 1-0.4-0.384V7.973c0-0.9 0.654-1.657 1.54-1.857V3.031h1.676V6.116zM7.01 1.671h1.676v0.665h-1.676V1.671z"></path>
        </g>
        <g id="SvgjsG1356">
            <path d="M7.45 12.652S6.4 11.121 3.725 11.121C1.274 11.121 0 11.833 0 11.833V1.937s1.274-0.712 3.725-0.729C6.4 1.19 7.45 2.756 7.45 2.756V12.652z m1.087 0s1.05-1.531 3.725-1.531c2.451 0 3.725 0.712 3.725 0.713V1.937s-1.274-0.712-3.725-0.729c-2.675-0.017-3.725 1.548-3.725 1.548v9.896z"></path>
            <path d="M8.012 15.733S6.4 13.411 3.725 13.411c-2.451 0-3.725 0.712-3.725 0.712v-1.186s1.274-0.712 3.725-0.729c2.675-0.018 4.287 2.34 4.287 2.34V15.733z m0 0s1.612-2.323 4.287-2.323c2.451 0 3.725 0.712 3.725 0.712v-1.185s-1.274-0.712-3.725-0.729c-2.675-0.019-4.287 2.339-4.287 2.339v1.185z"></path>
        </g>
        <g id="SvgjsG1365">
            <path d="M3.044 12.188V8.93c0-2.836 2.475-5.244 5.463-5.245 3.022-0.004 5.465 2.352 5.465 5.245v3.258h1.351V8.93C15.332 5.276 12.27 2.325 8.51 2.325 4.777 2.325 1.689 5.333 1.689 8.93v3.258h1.355z"></path>
            <path d="M5.463 14.702l-1.781 0.006V9.593h1.785c0.921 2.372 0 5.111 0 5.111m6.049-5.109H13.298V14.702l-1.783 0.006c-0.921-2.373 0-5.113 0-5.113"></path>
        </g>
        <g id="SvgjsG1358">
            <path d="M15.819 2.872L8 9.063 0.182 2.872z m0 8.863L11.116 8l4.703-3.734zM0.161 4.266l4.702 3.734L0.161 11.735z"></path>
            <path d="M10.255 8.663L8.011 10.434 5.766 8.663 0.182 13.068h15.656z"></path>
        </g>
        <g id="SvgjsG1357">
            <path d="M11.221 11.657c-2.056 2.056-5.389 2.055-7.444 0-2.056-2.056-2.056-5.389 0-7.444 0.976-0.977 2.617-2.176 5.214-2.176 4.749 0 6.224-1.252 6.224-1.252 0 5.707-1.938 8.816-3.994 10.872z"></path>
            <path d="M3.223 11.626L2.552 10.224l6.437-4.363z"></path>
            <path d="M8.989 5.861l1.15 1.15-8.203 8.203-1.151-1.15z"></path>
        </g>
        <g id="SvgjsG1367">
            <path d="M3.536 11.602h4.034c0.389 0.183 3.806 2.583 4.382 2.972l0.011-2.995h-0.022a2.761 2.761 0 0 0 2.422-2.742V3.09c0-1.527-1.234-2.766-2.765-2.765H3.538c-1.531 0-2.766 1.239-2.765 2.765v5.747c0 1.525 1.239 2.766 2.765 2.765z" fill-rule="evenodd"></path>
        </g>
        <g id="SvgjsG1368">
            <use xlink:href="#SvgjsG1353" transform="translate(0, 0) scale(2)" fill="#ffffff12"></use>
            <use xlink:href="#SvgjsG1354" transform="translate(0, 48) scale(2)" fill="#ffffff12"></use>
            <use xlink:href="#SvgjsG1355" transform="translate(0, 96) scale(2)" fill="#ffffff12"></use>
            <use xlink:href="#SvgjsG1356" transform="translate(0, 144) scale(2)" fill="#ffffff12"></use>
            <use xlink:href="#SvgjsG1357" transform="translate(0, 192) scale(2)" fill="#ffffff12"></use>
            <use xlink:href="#SvgjsG1358" transform="translate(0, 240) scale(2)" fill="#ffffff12"></use>
            <use xlink:href="#SvgjsG1359" transform="translate(0, 288) scale(2)" fill="#ffffff12"></use>
            <use xlink:href="#SvgjsG1358" transform="translate(0, 336) scale(2)" fill="#ffffff12"></use>
            <use xlink:href="#SvgjsG1360" transform="translate(0, 384) scale(2)" fill="#ffffff12"></use>
            <use xlink:href="#SvgjsG1357" transform="translate(0, 432) scale(2)" fill="#ffffff12"></use>
            <use xlink:href="#SvgjsG1355" transform="translate(48, 0) scale(2)" fill="#ffffff12"></use>
            <use xlink:href="#SvgjsG1361" transform="translate(48, 48) scale(2)" fill="#ffffff12"></use>
            <use xlink:href="#SvgjsG1362" transform="translate(48, 96) scale(2)" fill="#ffffff12"></use>
            <use xlink:href="#SvgjsG1357" transform="translate(48, 144) scale(2)" fill="#ffffff12"></use>
            <use xlink:href="#SvgjsG1363" transform="translate(48, 192) scale(2)" fill="#ffffff12"></use>
            <use xlink:href="#SvgjsG1357" transform="translate(48, 240) scale(2)" fill="#ffffff12"></use>
            <use xlink:href="#SvgjsG1362" transform="translate(48, 288) scale(2)" fill="#ffffff12"></use>
            <use xlink:href="#SvgjsG1360" transform="translate(48, 336) scale(2)" fill="#ffffff12"></use>
            <use xlink:href="#SvgjsG1364" transform="translate(48, 384) scale(2)" fill="#ffffff12"></use>
            <use xlink:href="#SvgjsG1353" transform="translate(48, 432) scale(2)" fill="#ffffff12"></use>
            <use xlink:href="#SvgjsG1357" transform="translate(96, 0) scale(2)" fill="#ffffff12"></use>
            <use xlink:href="#SvgjsG1356" transform="translate(96, 48) scale(2)" fill="#ffffff12"></use>
            <use xlink:href="#SvgjsG1364" transform="translate(96, 96) scale(2)" fill="#ffffff12"></use>
            <use xlink:href="#SvgjsG1360" transform="translate(96, 144) scale(2)" fill="#ffffff12"></use>
            <use xlink:href="#SvgjsG1358" transform="translate(96, 192) scale(2)" fill="#ffffff12"></use>
            <use xlink:href="#SvgjsG1354" transform="translate(96, 240) scale(2)" fill="#ffffff12"></use>
            <use xlink:href="#SvgjsG1353" transform="translate(96, 288) scale(2)" fill="#ffffff12"></use>
            <use xlink:href="#SvgjsG1353" transform="translate(96, 336) scale(2)" fill="#ffffff12"></use>
            <use xlink:href="#SvgjsG1360" transform="translate(96, 384) scale(2)" fill="#ffffff12"></use>
            <use xlink:href="#SvgjsG1365" transform="translate(96, 432) scale(2)" fill="#ffffff12"></use>
            <use xlink:href="#SvgjsG1359" transform="translate(144, 0) scale(2)" fill="#ffffff12"></use>
            <use xlink:href="#SvgjsG1353" transform="translate(144, 48) scale(2)" fill="#ffffff12"></use>
            <use xlink:href="#SvgjsG1366" transform="translate(144, 96) scale(2)" fill="#ffffff12"></use>
            <use xlink:href="#SvgjsG1364" transform="translate(144, 144) scale(2)" fill="#ffffff12"></use>
            <use xlink:href="#SvgjsG1360" transform="translate(144, 192) scale(2)" fill="#ffffff12"></use>
            <use xlink:href="#SvgjsG1360" transform="translate(144, 240) scale(2)" fill="#ffffff12"></use>
            <use xlink:href="#SvgjsG1367" transform="translate(144, 288) scale(2)" fill="#ffffff12"></use>
            <use xlink:href="#SvgjsG1357" transform="translate(144, 336) scale(2)" fill="#ffffff12"></use>
            <use xlink:href="#SvgjsG1366" transform="translate(144, 384) scale(2)" fill="#ffffff12"></use>
            <use xlink:href="#SvgjsG1356" transform="translate(144, 432) scale(2)" fill="#ffffff12"></use>
            <use xlink:href="#SvgjsG1363" transform="translate(192, 0) scale(2)" fill="#ffffff12"></use>
            <use xlink:href="#SvgjsG1354" transform="translate(192, 48) scale(2)" fill="#ffffff12"></use>
            <use xlink:href="#SvgjsG1353" transform="translate(192, 96) scale(2)" fill="#ffffff12"></use>
            <use xlink:href="#SvgjsG1361" transform="translate(192, 144) scale(2)" fill="#ffffff12"></use>
            <use xlink:href="#SvgjsG1353" transform="translate(192, 192) scale(2)" fill="#ffffff12"></use>
            <use xlink:href="#SvgjsG1358" transform="translate(192, 240) scale(2)" fill="#ffffff12"></use>
            <use xlink:href="#SvgjsG1358" transform="translate(192, 288) scale(2)" fill="#ffffff12"></use>
            <use xlink:href="#SvgjsG1365" transform="translate(192, 336) scale(2)" fill="#ffffff12"></use>
            <use xlink:href="#SvgjsG1356" transform="translate(192, 384) scale(2)" fill="#ffffff12"></use>
            <use xlink:href="#SvgjsG1362" transform="translate(192, 432) scale(2)" fill="#ffffff12"></use>
            <use xlink:href="#SvgjsG1367" transform="translate(240, 0) scale(2)" fill="#ffffff12"></use>
            <use xlink:href="#SvgjsG1363" transform="translate(240, 48) scale(2)" fill="#ffffff12"></use>
            <use xlink:href="#SvgjsG1363" transform="translate(240, 96) scale(2)" fill="#ffffff12"></use>
            <use xlink:href="#SvgjsG1360" transform="translate(240, 144) scale(2)" fill="#ffffff12"></use>
            <use xlink:href="#SvgjsG1361" transform="translate(240, 192) scale(2)" fill="#ffffff12"></use>
            <use xlink:href="#SvgjsG1359" transform="translate(240, 240) scale(2)" fill="#ffffff12"></use>
            <use xlink:href="#SvgjsG1354" transform="translate(240, 288) scale(2)" fill="#ffffff12"></use>
            <use xlink:href="#SvgjsG1361" transform="translate(240, 336) scale(2)" fill="#ffffff12"></use>
            <use xlink:href="#SvgjsG1362" transform="translate(240, 384) scale(2)" fill="#ffffff12"></use>
            <use xlink:href="#SvgjsG1357" transform="translate(240, 432) scale(2)" fill="#ffffff12"></use>
            <use xlink:href="#SvgjsG1353" transform="translate(288, 0) scale(2)" fill="#ffffff12"></use>
            <use xlink:href="#SvgjsG1367" transform="translate(288, 48) scale(2)" fill="#ffffff12"></use>
            <use xlink:href="#SvgjsG1356" transform="translate(288, 96) scale(2)" fill="#ffffff12"></use>
            <use xlink:href="#SvgjsG1362" transform="translate(288, 144) scale(2)" fill="#ffffff12"></use>
            <use xlink:href="#SvgjsG1354" transform="translate(288, 192) scale(2)" fill="#ffffff12"></use>
            <use xlink:href="#SvgjsG1362" transform="translate(288, 240) scale(2)" fill="#ffffff12"></use>
            <use xlink:href="#SvgjsG1363" transform="translate(288, 288) scale(2)" fill="#ffffff12"></use>
            <use xlink:href="#SvgjsG1365" transform="translate(288, 336) scale(2)" fill="#ffffff12"></use>
            <use xlink:href="#SvgjsG1354" transform="translate(288, 384) scale(2)" fill="#ffffff12"></use>
            <use xlink:href="#SvgjsG1353" transform="translate(288, 432) scale(2)" fill="#ffffff12"></use>
            <use xlink:href="#SvgjsG1361" transform="translate(336, 0) scale(2)" fill="#ffffff12"></use>
            <use xlink:href="#SvgjsG1362" transform="translate(336, 48) scale(2)" fill="#ffffff12"></use>
            <use xlink:href="#SvgjsG1354" transform="translate(336, 96) scale(2)" fill="#ffffff12"></use>
            <use xlink:href="#SvgjsG1355" transform="translate(336, 144) scale(2)" fill="#ffffff12"></use>
            <use xlink:href="#SvgjsG1362" transform="translate(336, 192) scale(2)" fill="#ffffff12"></use>
            <use xlink:href="#SvgjsG1362" transform="translate(336, 240) scale(2)" fill="#ffffff12"></use>
            <use xlink:href="#SvgjsG1359" transform="translate(336, 288) scale(2)" fill="#ffffff12"></use>
            <use xlink:href="#SvgjsG1360" transform="translate(336, 336) scale(2)" fill="#ffffff12"></use>
            <use xlink:href="#SvgjsG1356" transform="translate(336, 384) scale(2)" fill="#ffffff12"></use>
            <use xlink:href="#SvgjsG1357" transform="translate(336, 432) scale(2)" fill="#ffffff12"></use>
            <use xlink:href="#SvgjsG1367" transform="translate(384, 0) scale(2)" fill="#ffffff12"></use>
            <use xlink:href="#SvgjsG1359" transform="translate(384, 48) scale(2)" fill="#ffffff12"></use>
            <use xlink:href="#SvgjsG1358" transform="translate(384, 96) scale(2)" fill="#ffffff12"></use>
            <use xlink:href="#SvgjsG1359" transform="translate(384, 144) scale(2)" fill="#ffffff12"></use>
            <use xlink:href="#SvgjsG1357" transform="translate(384, 192) scale(2)" fill="#ffffff12"></use>
            <use xlink:href="#SvgjsG1357" transform="translate(384, 240) scale(2)" fill="#ffffff12"></use>
            <use xlink:href="#SvgjsG1355" transform="translate(384, 288) scale(2)" fill="#ffffff12"></use>
            <use xlink:href="#SvgjsG1359" transform="translate(384, 336) scale(2)" fill="#ffffff12"></use>
            <use xlink:href="#SvgjsG1357" transform="translate(384, 384) scale(2)" fill="#ffffff12"></use>
            <use xlink:href="#SvgjsG1361" transform="translate(384, 432) scale(2)" fill="#ffffff12"></use>
            <use xlink:href="#SvgjsG1355" transform="translate(432, 0) scale(2)" fill="#ffffff12"></use>
            <use xlink:href="#SvgjsG1360" transform="translate(432, 48) scale(2)" fill="#ffffff12"></use>
            <use xlink:href="#SvgjsG1354" transform="translate(432, 96) scale(2)" fill="#ffffff12"></use>
            <use xlink:href="#SvgjsG1356" transform="translate(432, 144) scale(2)" fill="#ffffff12"></use>
            <use xlink:href="#SvgjsG1361" transform="translate(432, 192) scale(2)" fill="#ffffff12"></use>
            <use xlink:href="#SvgjsG1356" transform="translate(432, 240) scale(2)" fill="#ffffff12"></use>
            <use xlink:href="#SvgjsG1364" transform="translate(432, 288) scale(2)" fill="#ffffff12"></use>
            <use xlink:href="#SvgjsG1362" transform="translate(432, 336) scale(2)" fill="#ffffff12"></use>
            <use xlink:href="#SvgjsG1366" transform="translate(432, 384) scale(2)" fill="#ffffff12"></use>
            <use xlink:href="#SvgjsG1359" transform="translate(432, 432) scale(2)" fill="#ffffff12"></use>
        </g>
    </defs>
</svg>